<?xml version="1.0" standalone="no"?>
<!DOCTYPE svg PUBLIC "-//W3C//DTD SVG 20010904//EN"
 "http://www.w3.org/TR/2001/REC-SVG-20010904/DTD/svg10.dtd">
<svg version="1.0" xmlns="http://www.w3.org/2000/svg"
 width="512.000000pt" height="512.000000pt" viewBox="0 0 512.000000 512.000000"
 preserveAspectRatio="xMidYMid meet">
<metadata>
Created by potrace 1.11, written by Peter Selinger 2001-2013
</metadata>
<g transform="translate(0.000000,512.000000) scale(0.100000,-0.100000)"
fill="#000000" stroke="none">
<path d="M4317 5094 c-1 -1 -166 -5 -367 -9 -658 -12 -916 -20 -995 -30 -16
-2 -55 -7 -85 -10 -178 -17 -369 -65 -482 -121 -177 -86 -272 -188 -360 -384
l-38 -85 4 -310 c3 -170 7 -330 10 -355 12 -105 16 -174 15 -325 0 -206 -2
-231 -25 -460 -1 -16 -5 -65 -9 -108 -4 -44 -8 -88 -11 -100 -2 -12 -5 -94 -6
-182 -2 -154 -1 -163 23 -205 47 -84 51 -85 297 -84 119 0 325 3 456 7 233 6
240 7 277 31 l38 25 0 133 c0 73 0 140 0 148 2 33 71 37 509 34 235 -2 468 -6
517 -9 50 -2 269 -6 487 -9 l397 -5 15 47 c36 112 39 165 41 567 2 369 7 477
22 530 3 11 7 55 8 98 l1 79 -45 22 c-43 22 -61 24 -311 29 -146 4 -299 9
-340 11 -41 3 -136 8 -210 12 -74 3 -166 8 -205 10 -73 4 -536 4 -738 1 -135
-3 -132 -5 -118 85 15 88 39 127 112 181 76 57 94 59 459 57 184 -1 396 -3
470 -5 633 -15 877 -15 887 -3 6 7 14 72 17 143 3 72 8 191 11 265 4 74 8 163
9 198 l4 62 -62 1 c-33 0 -79 2 -101 3 -211 16 -569 28 -578 20z"/>
<path d="M560 4896 c-19 -7 -45 -28 -57 -46 -22 -31 -23 -43 -24 -236 -1 -112
-3 -208 -4 -214 -1 -5 -3 -14 -4 -19 -2 -19 -69 -31 -180 -31 -91 0 -125 -4
-157 -19 -87 -39 -111 -122 -53 -180 40 -40 79 -49 228 -54 115 -4 126 -6 143
-27 17 -21 18 -52 19 -489 1 -497 1 -514 17 -606 48 -283 259 -417 657 -415
339 1 563 104 655 303 40 86 68 249 66 391 -1 129 -13 156 -76 187 -42 20
-145 18 -188 -5 -61 -32 -67 -53 -77 -266 -8 -171 -26 -232 -86 -291 -60 -59
-145 -87 -264 -87 -132 0 -229 45 -279 131 -54 91 -56 118 -53 653 1 389 5
496 15 506 10 10 83 13 321 15 189 1 324 6 349 13 65 17 94 47 99 106 4 43 2
54 -21 81 -40 48 -81 53 -413 53 -220 0 -305 4 -323 13 l-25 13 -5 231 c-6
256 -6 259 -77 289 -40 17 -156 17 -203 0z"/>
<path d="M133 2520 c-35 -4 -60 -13 -74 -27 -21 -20 -21 -27 -21 -474 0 -401
2 -502 17 -689 2 -25 7 -83 11 -130 3 -47 8 -101 10 -120 2 -19 6 -116 9 -215
10 -326 11 -340 33 -387 30 -60 58 -94 122 -142 70 -52 115 -77 215 -114 121
-46 267 -82 435 -108 25 -3 53 -8 62 -9 15 -3 87 -10 203 -21 142 -12 357 -18
1055 -29 206 -4 393 -10 415 -15 58 -14 115 -12 116 3 1 12 3 28 12 87 3 19 9
55 12 80 3 25 8 59 11 75 12 66 16 840 5 882 -20 75 -38 88 -128 89 -43 1
-265 5 -493 9 -768 12 -787 13 -915 56 -110 36 -189 109 -201 187 l-7 42 174
1 c218 1 298 3 874 25 126 5 501 13 648 14 l57 0 0 278 c-1 301 -1 305 -56
321 -16 4 -59 3 -97 -4 -70 -12 -807 -13 -1047 -1 -69 3 -186 8 -260 12 -74 3
-162 8 -195 10 -33 1 -72 3 -88 3 l-27 1 2 106 c2 130 -1 135 -129 157 -194
34 -623 61 -760 47z"/>
<path d="M4088 2245 c-2 -2 -25 -5 -53 -9 -118 -14 -246 -61 -342 -127 -27
-18 -50 -35 -53 -38 -3 -3 -19 -18 -35 -33 l-30 -27 -2 67 c-2 57 -5 70 -26
88 -24 20 -35 21 -303 22 -175 1 -292 -3 -314 -10 -63 -19 -86 -63 -65 -126 9
-32 76 -61 129 -57 22 2 82 6 132 10 85 7 93 6 112 -13 12 -12 26 -39 32 -61
11 -41 7 -1440 -4 -1491 -3 -13 -7 -39 -8 -57 -1 -18 -12 -45 -24 -60 -25 -31
-43 -33 -209 -19 -114 9 -154 -7 -168 -67 -11 -47 9 -80 65 -109 42 -22 66
-23 218 -12 172 12 600 7 690 -9 18 -3 108 16 121 26 27 21 40 56 34 93 -12
76 -63 91 -242 70 -81 -9 -123 8 -148 60 -16 34 -19 66 -20 237 -1 108 -1 197
0 197 1 0 20 -14 41 -31 87 -69 251 -131 389 -147 92 -10 330 -2 353 12 4 2
23 7 44 10 137 22 321 124 432 240 133 140 209 348 209 571 1 172 -23 279 -91
410 -48 92 -171 217 -267 270 -80 45 -203 91 -266 100 -24 3 -57 8 -74 12 -28
6 -252 12 -257 8z m248 -220 c217 -50 349 -210 380 -460 6 -46 5 -236 -1 -270
-26 -145 -65 -232 -139 -312 -108 -116 -238 -167 -436 -172 -186 -3 -333 46
-435 147 -94 92 -117 183 -110 432 2 91 7 179 9 195 29 160 50 215 108 281 57
65 197 143 288 161 114 22 237 21 336 -2z"/>
</g>
</svg>
